<svg width="100" height="100" viewBox="0 0 100 100" fill="none" xmlns="http://www.w3.org/2000/svg">
<g clip-path="url(#clip0_1_101)">
<path d="M90.46 41.16C90.28 42.18 89.89 42.84 89.29 43.14C88.75 43.44 88.12 43.59 87.4 43.59C87.16 43.59 86.89 43.59 86.59 43.59C86.29 43.53 86.02 43.5 85.78 43.5C84.94 43.38 84.13 43.35 83.35 43.41C82.57 43.47 81.97 43.86 81.55 44.58C80.89 45.66 80.41 47.16 80.11 49.08C79.81 50.94 79.51 52.86 79.21 54.84C78.97 56.82 78.55 58.5 77.95 59.88C77.59 60.3 77.2 60.69 76.78 61.05C76.42 61.41 76.21 61.92 76.15 62.58C72.97 61.98 69.46 61.74 65.62 61.86C61.84 61.92 57.88 62.1 53.74 62.4C53.5 64.26 53.35 66.12 53.29 67.98C53.23 69.78 53.2 71.61 53.2 73.47C53.2 76.71 53.08 79.98 52.84 83.28C52.6 86.52 51.79 89.76 50.41 93C50.11 93.42 49.78 93.54 49.42 93.36C49.06 93.24 48.76 93.03 48.52 92.73C47.02 88.95 46.12 85.2 45.82 81.48C45.58 77.7 45.46 73.86 45.46 69.96C45.46 68.88 45.46 67.77 45.46 66.63C45.46 65.43 45.43 64.26 45.37 63.12C43.75 63.06 42.07 63.09 40.33 63.21C38.59 63.33 36.88 63.48 35.2 63.66C33.88 63.78 32.59 63.9 31.33 64.02C30.07 64.08 28.87 64.11 27.73 64.11C27.31 64.71 27.1 65.25 27.1 65.73C27.1 66.15 26.95 66.69 26.65 67.35C24.25 67.29 22.54 66.69 21.52 65.55C20.56 64.35 19.84 62.91 19.36 61.23C19.36 60.57 19.36 59.88 19.36 59.16C19.42 58.38 19.45 57.57 19.45 56.73C19.57 54.45 19.6 52.17 19.54 49.89C19.48 47.61 19.03 45.81 18.19 44.49C17.95 44.13 17.65 43.98 17.29 44.04C16.93 44.04 16.6 43.89 16.3 43.59C16.18 43.41 16.12 43.23 16.12 43.05C16.12 42.81 16.06 42.6 15.94 42.42C15.46 41.76 14.92 41.19 14.32 40.71C13.72 40.23 13.18 39.72 12.7 39.18C12.7 38.82 12.79 38.55 12.97 38.37C13.15 38.13 13.33 37.95 13.51 37.83C13.75 37.65 13.93 37.44 14.05 37.2C14.17 36.96 14.08 36.51 13.78 35.85C17.56 36.21 21.52 36.27 25.66 36.03C29.86 35.73 34.36 35.37 39.16 34.95C40.06 34.83 40.96 34.74 41.86 34.68C42.76 34.56 43.66 34.47 44.56 34.41C44.5 33.21 44.41 31.77 44.29 30.09C44.23 28.35 44.14 26.64 44.02 24.96C43.96 23.28 43.87 21.96 43.75 21C42.97 19.8 42.4 18.48 42.04 17.04C41.68 15.6 41.41 13.95 41.23 12.09C41.53 12.15 41.68 12 41.68 11.64C41.74 11.28 41.89 11.13 42.13 11.19C43.93 11.61 45.46 12.33 46.72 13.35C48.04 14.31 49.3 15.33 50.5 16.41C51.7 17.43 53.05 18.3 54.55 19.02C54.79 20.04 54.82 21.21 54.64 22.53C54.52 23.85 54.37 25.2 54.19 26.58C54.01 27.9 53.86 29.19 53.74 30.45C53.62 31.71 53.68 32.79 53.92 33.69C55.66 34.05 57.31 34.23 58.87 34.23C60.49 34.17 62.17 34.08 63.91 33.96C64.99 33.9 66.13 33.84 67.33 33.78C68.53 33.66 69.82 33.63 71.2 33.69C71.32 33.21 71.59 32.91 72.01 32.79C72.43 32.61 72.67 32.31 72.73 31.89C75.49 31.95 77.86 32.43 79.84 33.33C81.82 34.17 83.65 35.28 85.33 36.66C87.01 38.04 88.72 39.54 90.46 41.16ZM45.28 57.18C44.98 53.76 44.86 50.73 44.92 48.09C44.98 45.39 44.77 42.54 44.29 39.54C41.47 39.96 38.44 40.2 35.2 40.26C32.02 40.32 29.11 40.68 26.47 41.34C25.81 42.66 25.54 44.16 25.66 45.84C25.78 47.52 25.99 49.35 26.29 51.33C26.47 52.35 26.62 53.4 26.74 54.48C26.92 55.56 27.04 56.67 27.1 57.81C29.92 58.05 33.01 58.11 36.37 57.99C39.73 57.87 42.7 57.6 45.28 57.18ZM71.29 38.46C69.07 38.34 66.28 38.31 62.92 38.37C59.62 38.43 56.5 38.76 53.56 39.36C53.56 39.66 53.56 40.02 53.56 40.44C53.56 40.86 53.56 41.31 53.56 41.79C53.5 43.17 53.47 44.79 53.47 46.65C53.47 48.45 53.5 50.28 53.56 52.14C53.62 53.94 53.77 55.56 54.01 57C55.15 57.06 56.32 57.03 57.52 56.91C58.78 56.73 60.04 56.55 61.3 56.37C62.74 56.19 64.12 56.04 65.44 55.92C66.82 55.74 68.08 55.74 69.22 55.92C69.82 54.42 70.36 52.62 70.84 50.52C71.38 48.42 71.71 46.29 71.83 44.13C72.01 41.97 71.83 40.08 71.29 38.46Z" fill="white"/>
</g>
<defs>
<clipPath id="clip0_1_101">
<rect width="100" height="100" fill="white"/>
</clipPath>
</defs>
</svg>
