<svg width="100" height="100" viewBox="0 0 100 100" fill="none" xmlns="http://www.w3.org/2000/svg">
<g clip-path="url(#clip0_1_95)">
<path d="M82.8 23.25C82.5 24.21 81.96 24.96 81.18 25.5C80.4 25.98 79.59 26.43 78.75 26.85C77.91 27.27 77.25 27.9 76.77 28.74C76.29 31.08 76.02 33.45 75.96 35.85C75.96 38.19 75.99 40.53 76.05 42.87C76.11 45.21 76.11 47.52 76.05 49.8C76.05 52.08 75.84 54.36 75.42 56.64C74.58 57.06 73.86 57.24 73.26 57.18C72.72 57.06 72.12 56.85 71.46 56.55C71.28 56.49 71.07 56.43 70.83 56.37C70.65 56.25 70.44 56.16 70.2 56.1C69.48 55.86 68.46 55.74 67.14 55.74C65.88 55.74 64.68 55.77 63.54 55.83C63.3 55.83 63.06 55.86 62.82 55.92C62.58 55.92 62.37 55.92 62.19 55.92C60.33 55.98 58.47 56.16 56.61 56.46C54.81 56.76 53.28 56.97 52.02 57.09C51.3 57.81 50.64 58.2 50.04 58.26C49.44 58.26 48.87 58.08 48.33 57.72C47.55 57.24 46.83 56.58 46.17 55.74C45.57 54.84 44.94 54.18 44.28 53.76C45 52.56 45.54 51.21 45.9 49.71C46.26 48.15 46.32 46.71 46.08 45.39C45.84 44.01 45.18 43.02 44.1 42.42C44.28 42.12 44.61 42 45.09 42.06C45.63 42.06 46.02 41.97 46.26 41.79C46.02 41.19 45.87 40.59 45.81 39.99C45.75 39.33 45.72 38.67 45.72 38.01C45.72 37.05 45.63 36.12 45.45 35.22C45.33 34.26 44.94 33.33 44.28 32.43C44.7 32.49 45.03 32.49 45.27 32.43C45.57 32.31 45.63 31.98 45.45 31.44C44.61 31.86 43.62 32.1 42.48 32.16C41.4 32.22 40.29 32.34 39.15 32.52C38.07 32.64 37.11 33.06 36.27 33.78C36.33 34.56 36.33 35.34 36.27 36.12C36.21 36.84 36.03 37.44 35.73 37.92C36.57 39.06 37.47 40.14 38.43 41.16C39.45 42.18 40.41 43.26 41.31 44.4C42.21 45.54 42.87 46.89 43.29 48.45C41.79 48.51 40.41 48.39 39.15 48.09C37.95 47.79 36.87 47.22 35.91 46.38C35.67 47.46 35.55 48.57 35.55 49.71C35.55 50.79 35.58 51.9 35.64 53.04C35.7 54.66 35.67 56.25 35.55 57.81C35.49 59.31 35.07 60.63 34.29 61.77C33.87 62.19 33.45 62.37 33.03 62.31C32.61 62.19 32.13 62.01 31.59 61.77C31.35 61.65 31.14 61.56 30.96 61.5C29.76 59.82 29.13 58.23 29.07 56.73C29.07 55.17 29.19 53.49 29.43 51.69C29.61 50.49 29.73 49.2 29.79 47.82C29.91 46.38 29.88 44.79 29.7 43.05C27.66 44.55 25.8 46.26 24.12 48.18C22.44 50.04 20.73 51.9 18.99 53.76C17.31 55.56 15.33 57.09 13.05 58.35C12.45 58.11 12.03 57.84 11.79 57.54C11.61 57.18 11.34 56.85 10.98 56.55C10.68 56.19 10.02 55.98 9 55.92C9.48 55.14 10.35 54.27 11.61 53.31C12.87 52.35 14.01 51.51 15.03 50.79C16.23 48.87 17.58 47.13 19.08 45.57C20.64 44.01 22.17 42.42 23.67 40.8C25.23 39.18 26.58 37.41 27.72 35.49C26.88 35.25 25.86 35.16 24.66 35.22C23.52 35.22 22.41 35.37 21.33 35.67C20.25 35.91 19.41 36.33 18.81 36.93C17.37 36.69 16.29 36.09 15.57 35.13C14.85 34.11 14.19 33.03 13.59 31.89C13.05 30.75 12.27 29.85 11.25 29.19C11.13 28.89 11.04 28.59 10.98 28.29C10.98 27.93 11.19 27.72 11.61 27.66C12.51 27.6 13.44 27.66 14.4 27.84C15.36 27.96 16.38 28.11 17.46 28.29C19.44 28.65 21.45 28.89 23.49 29.01C25.59 29.13 27.57 28.68 29.43 27.66C29.73 25.5 29.67 23.67 29.25 22.17C28.83 20.61 28.32 19.14 27.72 17.76C27.36 16.74 27 15.72 26.64 14.7C26.34 13.68 26.13 12.57 26.01 11.37C28.65 11.55 30.87 12.33 32.67 13.71C34.53 15.09 35.82 16.86 36.54 19.02C37.32 21.12 37.38 23.43 36.72 25.95C37.44 26.55 38.34 27 39.42 27.3C40.56 27.54 41.67 27.87 42.75 28.29C43.89 28.71 44.7 29.46 45.18 30.54C45.18 30.54 45.15 30.18 45.09 29.46C45.03 28.74 44.67 27.9 44.01 26.94C43.41 25.92 42.3 25.05 40.68 24.33C40.62 23.67 40.8 23.25 41.22 23.07C41.7 22.89 42.24 22.77 42.84 22.71C43.5 22.65 44.1 22.53 44.64 22.35C45.24 22.11 45.54 21.57 45.54 20.73C47.64 20.19 49.89 19.89 52.29 19.83C54.69 19.71 57.09 19.59 59.49 19.47C61.89 19.35 64.11 19.05 66.15 18.57C66.51 18.51 66.84 18.42 67.14 18.3C67.44 18.12 67.74 17.97 68.04 17.85C68.52 17.67 69 17.52 69.48 17.4C69.96 17.22 70.47 17.16 71.01 17.22C71.49 17.28 71.91 17.4 72.27 17.58C72.69 17.76 73.08 17.94 73.44 18.12C74.04 18.36 74.61 18.57 75.15 18.75C75.69 18.93 76.26 18.9 76.86 18.66C77.58 19.68 78.51 20.49 79.65 21.09C80.85 21.69 81.9 22.41 82.8 23.25ZM85.59 76.89C86.37 78.33 86.46 79.68 85.86 80.94C85.32 82.14 84.72 83.22 84.06 84.18C83.88 84.48 83.73 84.69 83.61 84.81C82.11 85.29 80.73 85.92 79.47 86.7C78.21 87.54 76.62 87.99 74.7 88.05C72.6 88.11 70.17 88.02 67.41 87.78C64.71 87.6 61.98 87.3 59.22 86.88C56.46 86.46 53.88 85.92 51.48 85.26C49.08 84.6 47.16 83.82 45.72 82.92C45.6 82.8 45.39 82.65 45.09 82.47C44.85 82.23 44.61 82.05 44.37 81.93C44.13 81.75 43.86 81.69 43.56 81.75C41.52 79.11 39.84 76.02 38.52 72.48C37.26 68.94 36.15 65.25 35.19 61.41C35.07 60.81 35.19 60.51 35.55 60.51C35.97 60.51 36.27 60.6 36.45 60.78C38.01 62.28 39.36 63.99 40.5 65.91C41.64 67.83 42.81 69.84 44.01 71.94C44.85 73.32 45.69 74.52 46.53 75.54C47.43 76.56 48.54 77.4 49.86 78.06C51.24 78.66 53.01 79.08 55.17 79.32C57.15 79.5 59.28 79.62 61.56 79.68C63.84 79.74 65.97 79.56 67.95 79.14C69.93 78.72 71.4 77.94 72.36 76.8C71.94 75.24 71.34 73.95 70.56 72.93C69.84 71.85 69.06 70.77 68.22 69.69C67.56 69.21 66.9 68.7 66.24 68.16C65.64 67.56 65.28 66.81 65.16 65.91C66.24 65.85 67.08 66.06 67.68 66.54C68.28 67.02 68.76 67.65 69.12 68.43C71.34 69.21 73.29 70.17 74.97 71.31C76.71 72.39 78.42 73.44 80.1 74.46C81.78 75.48 83.61 76.29 85.59 76.89ZM68.22 51.42C68.52 49.62 68.73 47.49 68.85 45.03C68.97 42.57 69 39.99 68.94 37.29C68.88 34.59 68.73 31.98 68.49 29.46C68.25 26.94 67.89 24.75 67.41 22.89C65.25 23.01 63.36 23.16 61.74 23.34C60.12 23.46 58.53 23.64 56.97 23.88C55.47 24.12 53.76 24.51 51.84 25.05C51.78 25.59 51.75 26.07 51.75 26.49C51.81 26.91 51.87 27.3 51.93 27.66C51.99 28.2 52.02 28.74 52.02 29.28C52.08 29.82 51.93 30.51 51.57 31.35C51.81 31.29 52.05 31.26 52.29 31.26C52.59 31.2 52.86 31.14 53.1 31.08C55.02 30.78 56.79 30.57 58.41 30.45C60.03 30.33 61.47 30.54 62.73 31.08C63.99 31.56 65.01 32.61 65.79 34.23C63.75 34.77 61.47 35.07 58.95 35.13C56.43 35.19 54.12 35.49 52.02 36.03C51.84 36.45 51.75 36.99 51.75 37.65C51.75 38.25 51.75 38.85 51.75 39.45C51.75 39.75 51.75 40.08 51.75 40.44C51.75 40.74 51.75 41.04 51.75 41.34C54.81 40.56 57.6 40.44 60.12 40.98C62.64 41.46 64.71 42.66 66.33 44.58C65.07 44.88 63.48 45.12 61.56 45.3C59.64 45.42 57.72 45.51 55.8 45.57C53.94 45.57 52.32 45.63 50.94 45.75C50.94 46.29 50.97 46.8 51.03 47.28C51.09 47.7 51.15 48.09 51.21 48.45C51.27 49.05 51.3 49.59 51.3 50.07C51.3 50.55 51.21 51.12 51.03 51.78C52.41 52.02 53.85 52.11 55.35 52.05C56.91 51.93 58.47 51.81 60.03 51.69C61.41 51.57 62.79 51.48 64.17 51.42C65.55 51.3 66.9 51.3 68.22 51.42ZM29.52 89.49C27.12 89.13 25.23 88.23 23.85 86.79C22.47 85.35 21.27 83.7 20.25 81.84C21.99 80.1 22.92 78 23.04 75.54C23.16 73.02 23.13 70.35 22.95 67.53C22.83 66.45 22.74 65.37 22.68 64.29C22.62 63.21 22.59 62.13 22.59 61.05C25.17 62.61 27 64.86 28.08 67.8C29.22 70.74 29.85 74.1 29.97 77.88C30.15 81.6 30 85.47 29.52 89.49ZM84.87 68.79C82.65 69.09 80.64 68.91 78.84 68.25C77.04 67.53 75.36 66.54 73.8 65.28C72.3 64.02 70.83 62.7 69.39 61.32C68.85 60.84 68.31 60.36 67.77 59.88C67.29 59.4 66.78 58.92 66.24 58.44C66.3 57.9 66.42 57.6 66.6 57.54C66.84 57.48 67.08 57.45 67.32 57.45C67.56 57.45 67.71 57.45 67.77 57.45C69.09 57.27 70.62 57.33 72.36 57.63C74.1 57.93 75.81 58.41 77.49 59.07C79.23 59.73 80.73 60.54 81.99 61.5C83.25 62.4 84.09 63.45 84.51 64.65C84.63 65.01 84.69 65.4 84.69 65.82C84.75 66.18 84.78 66.57 84.78 66.99C84.78 67.29 84.78 67.59 84.78 67.89C84.78 68.19 84.81 68.49 84.87 68.79ZM61.83 69.42C60.63 70.2 59.49 70.62 58.41 70.68C57.39 70.74 56.43 70.56 55.53 70.14C53.97 69.3 52.59 67.95 51.39 66.09C50.19 64.17 49.11 62.43 48.15 60.87C48.03 60.51 48.12 60.3 48.42 60.24C48.72 60.12 48.81 59.91 48.69 59.61C52.35 60.03 55.2 60.96 57.24 62.4C59.34 63.84 60.87 66.18 61.83 69.42Z" fill="white"/>
</g>
<defs>
<clipPath id="clip0_1_95">
<rect width="100" height="100" fill="white"/>
</clipPath>
</defs>
</svg>
