<svg width="100" height="100" viewBox="0 0 100 100" fill="none" xmlns="http://www.w3.org/2000/svg">
<g clip-path="url(#clip0_1_8)">
<path d="M81.45 35.4C80.61 36.66 79.65 37.65 78.57 38.37C77.55 39.03 76.62 39.81 75.78 40.71C75 41.55 74.46 42.93 74.16 44.85C73.74 48.09 73.53 51.36 73.53 54.66C73.53 57.96 73.59 61.2 73.71 64.38C73.71 64.8 73.71 65.22 73.71 65.64C73.77 66.06 73.8 66.48 73.8 66.9C73.98 71.28 74.04 75.48 73.98 79.5C73.92 83.52 73.35 87.18 72.27 90.48C70.89 90.6 69.81 90.45 69.03 90.03C68.25 89.61 67.59 89.04 67.05 88.32C66.57 87.6 66.12 86.79 65.7 85.89C65.28 85.05 64.83 84.27 64.35 83.55C61.65 83.49 58.74 83.49 55.62 83.55C52.5 83.61 49.38 83.82 46.26 84.18C44.04 84.42 41.91 84.69 39.87 84.99C37.83 85.35 35.79 85.71 33.75 86.07C32.79 86.25 31.62 86.1 30.24 85.62C28.86 85.14 27.54 84.45 26.28 83.55C25.08 82.65 24.18 81.69 23.58 80.67C23.76 80.67 24 80.73 24.3 80.85C24.48 80.97 24.66 81.06 24.84 81.12C25.02 81.12 25.23 81.09 25.47 81.03C25.41 80.07 25.02 79.17 24.3 78.33C23.58 77.49 23.16 76.5 23.04 75.36C23.04 74.88 23.1 74.43 23.22 74.01C23.34 73.53 23.49 73.05 23.67 72.57C23.79 72.21 23.88 71.88 23.94 71.58C24.06 71.22 24.15 70.89 24.21 70.59C24.87 66.33 25.17 61.8 25.11 57C25.05 52.14 24.87 47.58 24.57 43.32C23.07 42.36 21.66 41.28 20.34 40.08C19.08 38.82 18.12 37.26 17.46 35.4C17.88 34.56 18.57 34.17 19.53 34.23C20.49 34.29 21.45 34.41 22.41 34.59C22.83 34.65 23.13 34.71 23.31 34.77C23.67 34.59 23.85 34.38 23.85 34.14C23.85 33.9 23.82 33.6 23.76 33.24C23.64 33 23.58 32.79 23.58 32.61C25.5 32.43 27.06 31.92 28.26 31.08C29.52 30.24 30.63 29.25 31.59 28.11C32.73 26.67 33.69 25.08 34.47 23.34C35.25 21.6 36.12 19.95 37.08 18.39C36.78 17.91 36.24 17.34 35.46 16.68C34.68 16.02 34.11 15.24 33.75 14.34C33.21 14.16 32.67 13.95 32.13 13.71C31.65 13.47 31.35 13.05 31.23 12.45C32.25 11.73 33.51 11.28 35.01 11.1C36.51 10.92 38.1 10.98 39.78 11.28C41.46 11.52 42.99 12 44.37 12.72C45.75 13.38 46.8 14.25 47.52 15.33C47.16 17.67 46.38 19.59 45.18 21.09C43.98 22.59 42.69 24 41.31 25.32C39.99 26.64 38.88 28.23 37.98 30.09C39.18 30.09 40.53 30.06 42.03 30C43.53 29.94 45.09 29.88 46.71 29.82C48.87 29.7 51.06 29.61 53.28 29.55C55.56 29.49 57.72 29.46 59.76 29.46C60.48 28.38 61.47 27.81 62.73 27.75C63.99 27.63 65.25 27.45 66.51 27.21C66.57 27.27 66.69 27.36 66.87 27.48C67.17 27.66 67.23 27.9 67.05 28.2C69.69 28.14 72.21 28.8 74.61 30.18C77.01 31.56 79.29 33.3 81.45 35.4ZM65.25 79.14C65.13 76.56 65.07 73.95 65.07 71.31C65.07 68.67 65.07 66 65.07 63.3C65.13 61.68 65.16 60.09 65.16 58.53C65.16 56.91 65.16 55.29 65.16 53.67C65.16 50.31 65.04 46.98 64.8 43.68C64.56 40.32 64.11 37.05 63.45 33.87C59.61 33.93 55.77 33.99 51.93 34.05C48.15 34.11 44.58 34.44 41.22 35.04C39.24 35.4 37.35 35.88 35.55 36.48C33.81 37.08 32.19 37.89 30.69 38.91C31.23 39.45 31.53 40.23 31.59 41.25C31.65 42.27 31.65 43.35 31.59 44.49C31.59 44.85 31.59 45.24 31.59 45.66C31.59 46.02 31.59 46.38 31.59 46.74C34.89 47.1 37.92 47.04 40.68 46.56C43.44 46.02 46.11 45.42 48.69 44.76C49.05 44.64 49.41 44.55 49.77 44.49C50.13 44.37 50.49 44.28 50.85 44.22C51.39 44.82 52.11 45.33 53.01 45.75C53.97 46.11 54.9 46.56 55.8 47.1C56.7 47.64 57.3 48.45 57.6 49.53C53.52 50.25 49.11 50.82 44.37 51.24C39.63 51.66 35.25 51.93 31.23 52.05C31.41 52.95 31.5 53.97 31.5 55.11C31.56 56.19 31.59 57.33 31.59 58.53C31.59 59.19 31.56 59.85 31.5 60.51C31.5 61.17 31.53 61.83 31.59 62.49C32.25 62.49 32.91 62.52 33.57 62.58C34.23 62.58 34.89 62.61 35.55 62.67C36.63 62.79 37.71 62.88 38.79 62.94C39.93 62.94 41.1 62.88 42.3 62.76C42.96 62.7 43.62 62.58 44.28 62.4C44.94 62.16 45.57 61.92 46.17 61.68C47.07 61.38 47.94 61.11 48.78 60.87C49.62 60.63 50.43 60.54 51.21 60.6C52.59 60.72 53.79 61.26 54.81 62.22C55.89 63.18 57.03 63.99 58.23 64.65C57.75 65.55 57 66.09 55.98 66.27C55.02 66.39 54 66.45 52.92 66.45C52.56 66.45 52.2 66.45 51.84 66.45C51.54 66.45 51.21 66.48 50.85 66.54C49.47 66.66 47.73 66.81 45.63 66.99C43.53 67.11 41.52 67.32 39.6 67.62C37.74 67.86 36.39 68.25 35.55 68.79C35.07 68.37 34.47 68.1 33.75 67.98C33.03 67.86 32.31 67.71 31.59 67.53C31.65 68.73 31.65 69.9 31.59 71.04C31.59 72.18 31.56 73.26 31.5 74.28C31.44 75.42 31.41 76.47 31.41 77.43C31.41 78.33 31.47 79.11 31.59 79.77C34.29 79.77 37.08 79.68 39.96 79.5C42.9 79.26 45.78 79.02 48.6 78.78C51.66 78.54 54.6 78.42 57.42 78.42C60.3 78.36 62.91 78.6 65.25 79.14Z" fill="white"/>
</g>
<defs>
<clipPath id="clip0_1_8">
<rect width="100" height="100" fill="white"/>
</clipPath>
</defs>
</svg>
