<svg width="100" height="100" viewBox="0 0 100 100" fill="none" xmlns="http://www.w3.org/2000/svg">
<g clip-path="url(#clip0_1_256)">
<path d="M90.45 83.19C90.21 84.03 90.03 84.6 89.91 84.9C89.79 85.26 89.67 85.77 89.55 86.43C88.65 86.73 87.75 87.21 86.85 87.87C86.01 88.59 85.08 89.25 84.06 89.85C83.1 90.45 81.9 90.78 80.46 90.84C79.2 90.9 77.67 90.9 75.87 90.84C74.07 90.78 72.3 90.66 70.56 90.48C68.82 90.3 67.41 90.03 66.33 89.67C66.27 89.67 66.18 89.52 66.06 89.22C65.94 88.92 65.82 88.74 65.7 88.68C65.52 88.62 65.31 88.56 65.07 88.5C64.89 88.44 64.71 88.41 64.53 88.41C63.75 88.23 63 87.99 62.28 87.69C61.62 87.39 61.32 86.79 61.38 85.89C61.2 86.19 61.02 86.34 60.84 86.34C60.72 86.4 60.48 86.37 60.12 86.25C60 86.19 59.91 86.16 59.85 86.16C58.05 85.02 56.28 84.18 54.54 83.64C52.86 83.1 51.15 82.23 49.41 81.03C47.67 80.43 45.66 79.83 43.38 79.23C41.16 78.63 38.85 78.21 36.45 77.97C34.05 77.73 31.71 77.88 29.43 78.42C29.01 78.54 28.59 78.69 28.17 78.87C27.75 78.99 27.3 79.11 26.82 79.23C25.62 79.71 24.36 80.1 23.04 80.4C21.72 80.64 20.37 80.34 18.99 79.5C18.45 79.14 17.97 78.66 17.55 78.06C17.19 77.4 16.77 76.83 16.29 76.35C16.17 76.23 15.99 76.11 15.75 75.99C15.57 75.81 15.39 75.66 15.21 75.54C14.61 75.12 14.07 74.7 13.59 74.28C13.11 73.8 12.96 73.14 13.14 72.3C14.4 72.24 15.69 72.36 17.01 72.66C18.39 72.9 19.77 73.47 21.15 74.37C22.35 73.77 23.58 73.44 24.84 73.38C26.16 73.32 27.66 73.17 29.34 72.93C29.82 71.25 29.82 69.87 29.34 68.79C28.92 67.71 28.23 66.81 27.27 66.09C26.31 65.37 25.29 64.71 24.21 64.11C23.01 63.39 21.9 62.67 20.88 61.95C19.92 61.17 19.41 60.15 19.35 58.89C19.29 58.23 19.44 57.72 19.8 57.36C20.16 56.94 20.55 56.55 20.97 56.19C21.21 56.01 21.42 55.83 21.6 55.65C21.84 55.41 22.02 55.2 22.14 55.02C22.92 54 23.49 52.89 23.85 51.69C24.27 50.49 24.9 49.59 25.74 48.99C24.42 48.69 22.74 48.87 20.7 49.53C18.72 50.13 17.04 50.76 15.66 51.42C14.46 50.64 13.53 49.74 12.87 48.72C12.27 47.7 11.7 46.65 11.16 45.57C10.68 44.43 9.96 43.35 9 42.33C10.02 41.79 11.16 41.61 12.42 41.79C13.68 41.97 14.97 42.24 16.29 42.6C18.09 43.02 19.83 43.29 21.51 43.41C23.25 43.47 24.72 42.6 25.92 40.8C26.22 40.86 26.52 40.92 26.82 40.98C27.12 40.98 27.45 41.01 27.81 41.07C29.31 41.31 30.84 41.64 32.4 42.06C33.96 42.42 35.22 43.11 36.18 44.13C37.14 45.09 37.5 46.56 37.26 48.54C35.58 48.96 34.08 49.83 32.76 51.15C31.44 52.41 30.27 53.91 29.25 55.65C28.29 57.33 27.39 59.01 26.55 60.69C27.93 61.71 29.37 62.67 30.87 63.57C32.37 64.47 33.69 65.58 34.83 66.9C35.97 68.16 36.69 69.87 36.99 72.03C39.81 72.99 42.75 73.86 45.81 74.64C48.93 75.42 52.32 75.9 55.98 76.08C54.24 75.3 53.25 74.13 53.01 72.57C52.77 71.01 52.71 69.3 52.83 67.44C52.83 66.84 52.83 66.24 52.83 65.64C52.89 64.98 52.89 64.35 52.83 63.75C52.47 63.99 52.11 64.29 51.75 64.65C51.45 64.95 51.12 65.25 50.76 65.55C49.68 66.51 48.54 67.44 47.34 68.34C46.2 69.24 44.94 69.9 43.56 70.32C42.18 70.68 40.71 70.59 39.15 70.05C40.35 68.55 41.76 67.08 43.38 65.64C45 64.14 46.56 62.55 48.06 60.87C49.62 59.19 50.88 57.33 51.84 55.29C51.3 55.23 50.82 55.23 50.4 55.29C50.04 55.35 49.65 55.41 49.23 55.47C48.99 55.47 48.75 55.5 48.51 55.56C48.27 55.62 48.03 55.65 47.79 55.65C47.55 56.01 47.43 56.49 47.43 57.09C47.49 57.63 47.43 58.11 47.25 58.53C44.73 57.87 42.93 56.46 41.85 54.3C40.77 52.08 40.8 49.59 41.94 46.83C41.7 46.41 41.43 46.05 41.13 45.75C40.83 45.39 40.5 45.03 40.14 44.67C39.54 44.07 39 43.44 38.52 42.78C38.1 42.06 38.07 41.22 38.43 40.26C41.07 39.78 44.58 39.24 48.96 38.64C53.4 38.04 58.17 37.62 63.27 37.38C63.99 36.48 64.89 35.97 65.97 35.85C67.11 35.73 68.31 35.85 69.57 36.21C70.83 36.51 72 36.84 73.08 37.2C73.44 37.32 73.8 37.44 74.16 37.56C74.52 37.68 74.85 37.77 75.15 37.83C75.69 38.79 75.99 39.75 76.05 40.71C76.17 41.61 76.2 42.57 76.14 43.59C75.54 43.71 74.88 43.86 74.16 44.04C73.5 44.16 72.84 44.25 72.18 44.31C72.12 45.87 71.82 47.55 71.28 49.35C70.8 51.09 70.11 52.59 69.21 53.85C68.13 53.97 66.72 54.06 64.98 54.12C63.24 54.12 61.8 54.36 60.66 54.84C60.6 55.68 60.09 56.43 59.13 57.09C60.45 58.11 61.74 58.38 63 57.9C64.32 57.36 65.61 56.7 66.87 55.92C67.83 55.32 68.79 54.78 69.75 54.3C70.77 53.82 71.79 53.67 72.81 53.85C72.99 53.55 73.17 53.31 73.35 53.13C73.59 52.89 73.83 52.8 74.07 52.86C74.55 52.92 75.18 53.22 75.96 53.76C76.8 54.3 77.49 54.96 78.03 55.74C78.63 56.46 78.78 57.24 78.48 58.08C78.18 59.04 77.37 59.67 76.05 59.97C74.79 60.21 73.32 60.36 71.64 60.42C70.02 60.48 68.52 60.72 67.14 61.14C67.5 61.92 68.01 62.67 68.67 63.39C69.33 64.05 69.99 64.71 70.65 65.37C71.79 66.45 72.75 67.56 73.53 68.7C74.31 69.78 74.37 71.07 73.71 72.57C73.65 72.57 73.53 72.54 73.35 72.48C72.81 72.3 72.21 72.15 71.55 72.03C70.89 71.85 70.29 71.91 69.75 72.21C69.21 71.55 68.52 71.04 67.68 70.68C66.9 70.26 66.03 69.93 65.07 69.69C64.23 68.85 63.54 67.86 63 66.72C62.52 65.58 61.98 64.47 61.38 63.39C60.84 62.31 60.03 61.5 58.95 60.96C58.77 61.98 58.68 63.06 58.68 64.2C58.68 65.28 58.71 66.36 58.77 67.44C58.77 68.94 58.74 70.41 58.68 71.85C58.68 73.29 58.5 74.7 58.14 76.08C57.48 75.72 56.97 75.72 56.61 76.08C57.45 76.14 58.32 76.38 59.22 76.8C60.18 77.16 60.96 77.34 61.56 77.34C61.68 77.34 61.77 77.25 61.83 77.07C61.89 76.83 61.92 76.71 61.92 76.71C62.64 76.83 63.21 77.04 63.63 77.34C64.11 77.58 64.65 77.76 65.25 77.88C66.51 78.06 67.8 78.15 69.12 78.15C70.5 78.09 71.88 78.03 73.26 77.97C75.42 77.85 77.55 77.82 79.65 77.88C81.75 77.94 83.73 78.36 85.59 79.14C87.45 79.92 89.07 81.27 90.45 83.19ZM78.75 33.15C77.31 33.75 75.87 34.08 74.43 34.14C72.99 34.14 71.55 34.08 70.11 33.96C69.15 33.9 68.19 33.87 67.23 33.87C66.27 33.81 65.31 33.84 64.35 33.96C64.11 34.02 63.84 34.2 63.54 34.5C63.24 34.74 62.94 34.89 62.64 34.95C62.46 35.01 62.16 34.92 61.74 34.68C61.44 34.44 61.2 34.32 61.02 34.32C60.24 34.32 59.07 34.47 57.51 34.77C56.01 35.07 54.42 35.4 52.74 35.76C51.12 36.12 49.71 36.42 48.51 36.66C48.15 36.72 47.76 36.75 47.34 36.75C46.98 36.75 46.62 36.75 46.26 36.75C45.78 36.75 45.3 36.78 44.82 36.84C44.34 36.84 43.86 36.9 43.38 37.02C42.9 37.14 42.42 37.38 41.94 37.74C41.52 38.1 41.07 38.31 40.59 38.37C38.85 38.55 37.29 38.07 35.91 36.93C34.53 35.73 33.3 34.56 32.22 33.42C32.4 32.7 32.67 32.31 33.03 32.25C33.45 32.13 33.9 32.1 34.38 32.16C34.86 32.22 35.31 32.22 35.73 32.16C36.15 32.1 36.48 31.77 36.72 31.17C38.46 31.59 40.44 31.74 42.66 31.62C44.94 31.44 47.16 31.23 49.32 30.99C50.04 30.93 50.73 30.87 51.39 30.81C52.11 30.75 52.77 30.69 53.37 30.63L53.28 25.95C51.6 26.07 49.74 26.31 47.7 26.67C45.72 27.03 43.92 27.42 42.3 27.84C41.16 26.82 39.99 25.65 38.79 24.33C37.65 22.95 37.02 21.51 36.9 20.01C37.56 20.01 38.28 20.04 39.06 20.1C39.84 20.16 40.65 20.22 41.49 20.28C43.23 20.46 45.09 20.61 47.07 20.73C49.05 20.79 51.12 20.58 53.28 20.1C53.64 18.6 53.49 17.37 52.83 16.41C52.23 15.45 51.54 14.55 50.76 13.71C50.04 12.93 49.44 12.15 48.96 11.37C48.48 10.53 48.51 9.54 49.05 8.4C49.11 8.4 49.2 8.43 49.32 8.49C50.46 8.73 51.69 9.06 53.01 9.47999C54.33 9.9 55.56 10.5 56.7 11.28C57.84 12 58.68 12.96 59.22 14.16C59.76 15.36 59.79 16.89 59.31 18.75C60.09 19.17 60.93 19.2 61.83 18.84C62.73 18.42 63.39 18.03 63.81 17.67C65.01 17.79 66.39 18.03 67.95 18.39C69.51 18.75 70.86 19.32 72 20.1C73.14 20.88 73.71 21.99 73.71 23.43C72.21 23.97 70.53 24.27 68.67 24.33C66.81 24.39 64.98 24.51 63.18 24.69C61.38 24.81 59.82 25.29 58.5 26.13C58.68 26.67 58.71 27.18 58.59 27.66C58.53 28.14 58.41 28.59 58.23 29.01C58.17 29.19 58.11 29.4 58.05 29.64C57.99 29.82 57.93 30 57.87 30.18C60.09 29.82 62.1 29.58 63.9 29.46C65.7 29.34 67.47 28.89 69.21 28.11C71.61 28.11 73.47 28.65 74.79 29.73C76.17 30.81 77.49 31.95 78.75 33.15ZM64.08 41.52C61.44 40.86 58.71 40.83 55.89 41.43C53.13 41.97 50.67 42.54 48.51 43.14C48.09 43.26 47.79 43.35 47.61 43.41V43.5C47.43 44.7 47.31 45.84 47.25 46.92C47.19 47.94 47.34 49.29 47.7 50.97C50.52 50.61 53.01 50.4 55.17 50.34C57.39 50.28 59.82 50.19 62.46 50.07C62.94 48.87 63.36 47.58 63.72 46.2C64.08 44.82 64.2 43.26 64.08 41.52ZM27.63 32.88C26.07 33.84 24.54 34.14 23.04 33.78C21.6 33.36 20.25 32.55 18.99 31.35C17.73 30.15 16.59 28.8 15.57 27.3C14.61 25.74 13.8 24.3 13.14 22.98C13.32 22.92 13.41 22.8 13.41 22.62C13.41 22.38 13.53 22.26 13.77 22.26C15.51 22.38 17.4 22.8 19.44 23.52C21.54 24.24 23.37 25.35 24.93 26.85C26.55 28.35 27.45 30.36 27.63 32.88Z" fill="white"/>
</g>
<defs>
<clipPath id="clip0_1_256">
<rect width="100" height="100" fill="white"/>
</clipPath>
</defs>
</svg>
